<svg width="28" height="28" viewBox="0 0 28 28" fill="none" xmlns="http://www.w3.org/2000/svg">
<path d="M12.8333 24.5H11.6666C7.26681 24.5 5.06693 24.5 3.70008 23.1332C2.33325 21.7664 2.33325 19.5664 2.33325 15.1667V11.6667C2.33325 7.26693 2.33325 5.06705 3.70008 3.70021C5.06693 2.33337 7.26681 2.33337 11.6666 2.33337H13.9999C18.3997 2.33337 20.5996 2.33337 21.9664 3.70021C23.3333 5.06705 23.3333 7.26693 23.3333 11.6667V12.25" stroke="white" stroke-width="1.75" stroke-linecap="round" stroke-linejoin="round"/>
<path d="M20.3079 16.8042C20.5556 16.1764 21.4442 16.1764 21.6918 16.8042L21.7347 16.9131C22.3395 18.4465 23.5534 19.6604 25.0868 20.2652L25.1957 20.3081C25.8235 20.5557 25.8235 21.4443 25.1957 21.692L25.0868 21.7348C23.5534 22.3396 22.3395 23.5535 21.7347 25.087L21.6918 25.1958C21.4442 25.8236 20.5556 25.8236 20.3079 25.1958L20.2651 25.087C19.6603 23.5535 18.4464 22.3396 16.9129 21.7348L16.8041 21.692C16.1763 21.4443 16.1763 20.5557 16.8041 20.3081L16.9129 20.2652C18.4464 19.6604 19.6603 18.4465 20.2651 16.9131L20.3079 16.8042Z" stroke="white" stroke-width="1.75" stroke-linecap="round" stroke-linejoin="round"/>
<path d="M8.16675 8.16663H17.5001M8.16675 13.4166H17.5001M8.16675 18.6666H12.8334" stroke="white" stroke-width="1.75" stroke-linecap="round" stroke-linejoin="round"/>
</svg>
