<svg width="28" height="28" viewBox="0 0 28 28" fill="none" xmlns="http://www.w3.org/2000/svg">
<path d="M6.22214 3.50001C9.09267 3.496 11.8632 4.53494 13.9999 6.41667V24.5C11.8632 22.6183 9.09267 21.5794 6.22214 21.5833C4.39979 21.5833 3.48863 21.5833 3.08606 21.3257C2.84437 21.171 2.74562 21.0722 2.59092 20.8305C2.33325 20.428 2.33325 19.7098 2.33325 18.2734V7.47042C2.33325 5.80467 2.33325 4.9718 2.97345 4.29667C3.61365 3.62154 4.26902 3.58671 5.57976 3.51703C5.79242 3.50573 6.0066 3.50001 6.22214 3.50001Z" stroke="white" stroke-width="1.75" stroke-linecap="round" stroke-linejoin="round"/>
<path d="M14 24V5.91667C16.1367 4.03494 18.9072 2.996 21.7778 3.00001C21.9933 3.00001 22.2075 3.00573 22.4202 3.01703C23.7309 3.08671 24.3862 3.12154 25.0265 3.79667C25.6667 4.4718 25.6667 5.30467 25.6667 6.97042V12.9167" stroke="white" stroke-width="1.75" stroke-linecap="round" stroke-linejoin="round"/>
<path d="M25.3035 17.4228L24.5771 16.6965C24.0928 16.2122 23.3077 16.2122 22.8234 16.6965L18.9164 20.6034C18.3972 21.1227 18.0432 21.7842 17.8991 22.5044L17.5 24.4999L19.4956 24.1008C20.2158 23.9567 20.8773 23.6028 21.3965 23.0835L25.3035 19.1766C25.7878 18.6923 25.7878 17.9071 25.3035 17.4228Z" stroke="white" stroke-width="1.75" stroke-linecap="round" stroke-linejoin="round"/>
</svg>
