<svg width="28" height="28" viewBox="0 0 28 28" fill="none" xmlns="http://www.w3.org/2000/svg">
<path d="M19.8334 14C19.8334 17.2216 17.2217 19.8333 14.0001 19.8333C10.7784 19.8333 8.16675 17.2216 8.16675 14C8.16675 10.7783 10.7784 8.16663 14.0001 8.16663" stroke="white" stroke-width="1.75" stroke-linecap="round"/>
<path d="M16.3333 2.56675C15.5794 2.41371 14.799 2.33337 13.9999 2.33337C7.55659 2.33337 2.33325 7.55672 2.33325 14C2.33325 20.4433 7.55659 25.6667 13.9999 25.6667C20.4432 25.6667 25.6666 20.4433 25.6666 14C25.6666 13.201 25.5862 12.4206 25.4333 11.6667" stroke="white" stroke-width="1.75" stroke-linecap="round"/>
<path d="M14.0354 13.9561L19.3471 8.64441M23.0305 5.0686L22.3851 2.75027C22.2662 2.36833 21.8067 2.21613 21.4969 2.46926C19.8215 3.83842 17.9963 5.6826 19.4869 8.59143C22.49 9.99184 24.2044 8.10335 25.5189 6.51606C25.7805 6.20024 25.6227 5.72549 25.2289 5.6116L23.0305 5.0686Z" stroke="white" stroke-width="1.75" stroke-linecap="round" stroke-linejoin="round"/>
</svg>
