<svg width="28" height="28" viewBox="0 0 28 28" fill="none" xmlns="http://www.w3.org/2000/svg">
<path d="M8.16675 11.0834C9.13325 11.0834 9.91675 10.2999 9.91675 9.33337C9.91675 8.36688 9.13325 7.58337 8.16675 7.58337C7.20025 7.58337 6.41675 8.36688 6.41675 9.33337C6.41675 10.2999 7.20025 11.0834 8.16675 11.0834Z" stroke="white" stroke-width="1.75" stroke-linecap="round" stroke-linejoin="round"/>
<path d="M24.4972 12.8333C24.4999 13.3818 24.4999 13.9642 24.4999 14.5833C24.4999 19.808 24.4999 22.4204 22.8769 24.0436C21.2537 25.6667 18.6413 25.6667 13.4166 25.6667C8.19185 25.6667 5.57949 25.6667 3.95637 24.0436C2.33325 22.4204 2.33325 19.808 2.33325 14.5833C2.33325 9.3586 2.33325 6.74624 3.95637 5.12311C5.57949 3.5 8.19185 3.5 13.4166 3.5C14.0357 3.5 14.6181 3.5 15.1666 3.5027" stroke="white" stroke-width="1.75" stroke-linecap="round"/>
<path d="M21.5833 2.33337L21.8842 3.14658C22.2788 4.2129 22.4761 4.74606 22.865 5.135C23.254 5.52394 23.7872 5.72122 24.8535 6.1158L25.6667 6.41671L24.8535 6.71761C23.7872 7.11219 23.254 7.30949 22.865 7.69842C22.4761 8.08735 22.2788 8.62052 21.8842 9.68684L21.5833 10.5L21.2824 9.68684C20.8879 8.62052 20.6906 8.08735 20.3016 7.69842C19.9127 7.30949 19.3795 7.11219 18.3132 6.71761L17.5 6.41671L18.3132 6.1158C19.3795 5.72122 19.9127 5.52394 20.3016 5.135C20.6906 4.74606 20.8879 4.2129 21.2824 3.14658L21.5833 2.33337Z" stroke="white" stroke-width="1.75" stroke-linejoin="round"/>
<path d="M5.25 25.0833C10.3512 18.9875 16.0698 10.9481 24.4971 16.3828" stroke="white" stroke-width="1.75"/>
</svg>
