<svg width="28" height="28" viewBox="0 0 28 28" fill="none" xmlns="http://www.w3.org/2000/svg">
<path d="M12.1042 3.49994C12.2976 3.49994 12.483 3.57677 12.6198 3.71351C12.7565 3.85026 12.8333 4.03572 12.8333 4.22911C12.8333 4.4225 12.7565 4.60796 12.6198 4.74471C12.483 4.88145 12.2976 4.95828 12.1042 4.95828H7.72917C6.9943 4.95828 6.28952 5.2502 5.76989 5.76983C5.25026 6.28947 4.95833 6.99424 4.95833 7.72911V20.2708C4.95833 20.6346 5.03 20.995 5.16925 21.3311C5.3085 21.6673 5.5126 21.9728 5.76989 22.2301C6.02719 22.4873 6.33264 22.6914 6.66881 22.8307C7.00499 22.9699 7.3653 23.0416 7.72917 23.0416H20.2708C20.6347 23.0416 20.995 22.9699 21.3312 22.8307C21.6674 22.6914 21.9728 22.4873 22.2301 22.2301C22.4874 21.9728 22.6915 21.6673 22.8307 21.3311C22.97 20.995 23.0417 20.6346 23.0417 20.2708V16.4791C23.0417 16.2857 23.1185 16.1003 23.2552 15.9635C23.392 15.8268 23.5774 15.7499 23.7708 15.7499C23.9642 15.7499 24.1497 15.8268 24.2864 15.9635C24.4232 16.1003 24.5 16.2857 24.5 16.4791V20.2708C24.5 21.3924 24.0544 22.4681 23.2613 23.2612C22.4682 24.0544 21.3925 24.4999 20.2708 24.4999H7.72917C6.60752 24.4999 5.53182 24.0544 4.73869 23.2612C3.94557 22.4681 3.5 21.3924 3.5 20.2708V7.72911C3.5 6.60747 3.94557 5.53176 4.73869 4.73864C5.53182 3.94552 6.60752 3.49994 7.72917 3.49994H12.1042ZM17.339 1.23428C17.4651 1.17576 17.6053 1.15449 17.743 1.17299C17.8808 1.19149 18.0104 1.24898 18.1166 1.33869L26.5749 8.48453C26.6541 8.55145 26.7181 8.63451 26.7627 8.72814C26.8073 8.82178 26.8314 8.92384 26.8333 9.02752C26.8353 9.13121 26.8152 9.23412 26.7742 9.32939C26.7333 9.42467 26.6725 9.51011 26.5959 9.58003L18.1376 17.3092C18.0332 17.4046 17.9033 17.4675 17.7637 17.4904C17.6242 17.5132 17.481 17.495 17.3516 17.438C17.2222 17.3809 17.1122 17.2875 17.035 17.169C16.9578 17.0505 16.9167 16.9122 16.9167 16.7708V13.4329C15.7179 13.4901 14.5705 13.7071 13.3945 14.2887C12.0645 14.9455 10.6441 16.0941 9.06733 18.1066L8.75 18.5208C8.66064 18.6398 8.53698 18.7287 8.39563 18.7754C8.25428 18.8222 8.10202 18.8245 7.9593 18.7821C7.81658 18.7398 7.69025 18.6547 7.59729 18.5385C7.50432 18.4222 7.44917 18.2802 7.43925 18.1317C7.28408 15.803 7.89892 12.625 9.49492 10.0105C11.004 7.53836 13.4266 5.52294 16.9167 5.27561V1.89578C16.9167 1.61169 17.0812 1.35386 17.339 1.23428ZM18.375 5.97911C18.375 6.1725 18.2982 6.35796 18.1614 6.49471C18.0247 6.63145 17.8392 6.70828 17.6458 6.70828C14.3862 6.70828 12.1549 8.45303 10.7403 10.7706C9.74808 12.3969 9.17817 14.2788 8.96817 15.9623C10.2597 14.5424 11.5057 13.5957 12.7482 12.9814C14.434 12.1479 16.0527 11.9583 17.6458 11.9583C17.8392 11.9583 18.0247 12.0351 18.1614 12.1718C18.2982 12.3086 18.375 12.4941 18.375 12.6874V15.1159L24.9987 9.06261L18.375 3.46611V5.97911Z" fill="white"/>
</svg>
