<svg width="24" height="24" viewBox="0 0 24 24" fill="none" xmlns="http://www.w3.org/2000/svg">
<path d="M12 4.74899C10.8125 4.74847 9.64312 5.03964 8.59453 5.5969C7.54594 6.15416 6.65028 6.96045 5.98626 7.94492C5.32225 8.92938 4.91022 10.0619 4.78637 11.2429C4.66253 12.4239 4.83066 13.6172 5.27601 14.718C5.31644 14.8099 5.338 14.909 5.33943 15.0094C5.34085 15.1098 5.32211 15.2094 5.2843 15.3024C5.2465 15.3954 5.19041 15.4799 5.11935 15.5508C5.04829 15.6218 4.96371 15.6777 4.87063 15.7153C4.77755 15.753 4.67787 15.7715 4.57748 15.7699C4.47709 15.7683 4.37805 15.7466 4.28623 15.706C4.1944 15.6654 4.11166 15.6067 4.04291 15.5336C3.97417 15.4604 3.92081 15.3742 3.88601 15.28C3.12955 13.4091 3.04301 11.3343 3.64104 9.40695C4.23908 7.4796 5.48492 5.8182 7.16756 4.70416C8.8502 3.59012 10.8662 3.09193 12.874 3.29398C14.8819 3.49603 16.7582 4.38588 18.1852 5.81283C19.6121 7.23977 20.502 9.11609 20.704 11.124C20.9061 13.1318 20.4079 15.1478 19.2938 16.8304C18.1798 18.5131 16.5184 19.7589 14.591 20.357C12.6637 20.955 10.5889 20.8685 8.71801 20.112C8.53763 20.0346 8.39476 19.8896 8.32008 19.7081C8.24539 19.5266 8.24482 19.3231 8.3185 19.1412C8.39219 18.9592 8.53424 18.8135 8.71419 18.7351C8.89413 18.6567 9.09763 18.652 9.28101 18.722C10.2723 19.1221 11.3398 19.2981 12.4071 19.2372C13.4744 19.1764 14.515 18.8803 15.4545 18.3702C16.3939 17.86 17.2089 17.1484 17.8411 16.2864C18.4732 15.4243 18.907 14.4331 19.1111 13.3838C19.3153 12.3345 19.2849 11.253 19.0222 10.2167C18.7594 9.18054 18.2707 8.21526 17.5911 7.39006C16.9115 6.56487 16.0578 5.90016 15.0912 5.44357C14.1246 4.98698 13.069 4.74979 12 4.74899Z" fill="white"/>
<path d="M6.24998 11.9983C6.24998 13.3153 6.69298 14.5293 7.43798 15.4993L6.96898 15.9683L6.93998 15.9983H5.76998C5.37229 15.9987 4.99101 16.1569 4.70998 16.4383L3.07298 18.0753C2.96822 18.1802 2.8969 18.3138 2.86801 18.4592C2.83913 18.6046 2.85398 18.7553 2.91069 18.8922C2.9674 19.0292 3.06343 19.1463 3.18665 19.2287C3.30986 19.3111 3.45474 19.3552 3.60298 19.3553H4.64298V20.3953C4.64311 20.5435 4.68717 20.6884 4.76959 20.8116C4.85201 20.9349 4.96909 21.0309 5.10606 21.0876C5.24302 21.1443 5.39372 21.1592 5.53911 21.1303C5.68451 21.1014 5.81809 21.0301 5.92298 20.9253L7.55998 19.2873C7.84112 19.0065 7.99936 18.6257 7.99998 18.2283V17.0583L8.02998 17.0293L8.49898 16.5613C9.52862 17.3516 10.7954 17.7703 12.0932 17.7493C13.391 17.7282 14.6435 17.2687 15.647 16.4455C16.6504 15.6222 17.3459 14.4837 17.6201 13.215C17.8944 11.9463 17.7314 10.6222 17.1575 9.45796C16.5837 8.29372 15.6329 7.35788 14.4596 6.80265C13.2864 6.24742 11.9599 6.10546 10.6957 6.39988C9.43158 6.6943 8.30424 7.40776 7.49706 8.42422C6.68989 9.44068 6.25036 10.7003 6.24998 11.9983ZM12 7.74831C12.6669 7.7485 13.3245 7.90565 13.9194 8.20705C14.5144 8.50846 15.0301 8.94566 15.4247 9.48329C15.8194 10.0209 16.082 10.6439 16.1913 11.3018C16.3006 11.9598 16.2535 12.6342 16.0539 13.2705C15.8542 13.9069 15.5076 14.4874 15.0421 14.9649C14.5765 15.4425 14.0051 15.8038 13.374 16.0196C12.743 16.2355 12.07 16.2997 11.4095 16.2073C10.749 16.1148 10.1195 15.8681 9.57198 15.4873L11.218 13.8403C11.6453 14.0216 12.1224 14.0486 12.5674 13.9167C13.0124 13.7848 13.3978 13.5023 13.6573 13.1174C13.9168 12.7326 14.0344 12.2694 13.9899 11.8074C13.9454 11.3453 13.7416 10.9132 13.4133 10.585C13.0851 10.2567 12.6529 10.0529 12.1909 10.0084C11.7289 9.96387 11.2657 10.0815 10.8809 10.341C10.496 10.6005 10.2134 10.9858 10.0816 11.4309C9.94966 11.8759 9.97668 12.353 10.158 12.7803L8.50998 14.4253C8.06656 13.7879 7.80624 13.0412 7.75729 12.2662C7.70835 11.4913 7.87264 10.7177 8.23233 10.0296C8.59202 9.34144 9.13336 8.76498 9.79757 8.3628C10.4618 7.96062 11.2235 7.7481 12 7.74831ZM6.93998 16.9983L6.99998 17.0573V18.2273C6.99968 18.3598 6.94681 18.4868 6.85298 18.5803L5.64298 19.7903V18.8553C5.64298 18.7227 5.5903 18.5955 5.49653 18.5018C5.40276 18.408 5.27559 18.3553 5.14298 18.3553H4.20698L5.41698 17.1453C5.46342 17.0987 5.51859 17.0618 5.57933 17.0365C5.64008 17.0113 5.7052 16.9983 5.77098 16.9983H6.93998Z" fill="white"/>
</svg>
