<svg width="32" height="32" viewBox="0 0 32 32" fill="none" xmlns="http://www.w3.org/2000/svg">
<path d="M12.1418 7.2614C12.9392 4.92806 16.1632 4.8574 17.1085 7.0494L17.1885 7.26273L18.2645 10.4094C18.5111 11.131 18.9096 11.7914 19.4331 12.346C19.9566 12.9005 20.5929 13.3363 21.2992 13.6241L21.5885 13.7321L24.7352 14.8067C27.0685 15.6041 27.1392 18.8281 24.9485 19.7734L24.7352 19.8534L21.5885 20.9294C20.8666 21.1758 20.206 21.5742 19.6512 22.0977C19.0964 22.6212 18.6604 23.2577 18.3725 23.9641L18.2645 24.2521L17.1898 27.4001C16.3925 29.7334 13.1685 29.8041 12.2245 27.6134L12.1418 27.4001L11.0672 24.2534C10.8207 23.5315 10.4223 22.8709 9.89882 22.3161C9.37531 21.7613 8.73889 21.3253 8.0325 21.0374L7.7445 20.9294L4.59783 19.8547C2.26316 19.0574 2.1925 15.8334 4.3845 14.8894L4.59783 14.8067L7.7445 13.7321C8.46614 13.4855 9.12651 13.087 9.68106 12.5635C10.2356 12.04 10.6714 11.4037 10.9592 10.6974L11.0672 10.4094L12.1418 7.2614ZM14.6658 8.12273L13.5912 11.2694C13.2157 12.3698 12.6049 13.3751 11.8012 14.2154C10.9976 15.0556 10.0204 15.7106 8.93783 16.1347L8.6045 16.2561L5.45783 17.3307L8.6045 18.4054C9.7049 18.7809 10.7102 19.3917 11.5505 20.1953C12.3907 20.999 13.0457 21.9761 13.4698 23.0587L13.5912 23.3921L14.6658 26.5387L15.7405 23.3921C16.116 22.2917 16.7268 21.2863 17.5304 20.4461C18.3341 19.6058 19.3112 18.9508 20.3938 18.5267L20.7272 18.4067L23.8738 17.3307L20.7272 16.2561C19.6268 15.8806 18.6214 15.2698 17.7812 14.4661C16.9409 13.6625 16.2859 12.6853 15.8618 11.6027L15.7418 11.2694L14.6658 8.12273ZM25.3325 2.66406C25.5819 2.66406 25.8264 2.73403 26.038 2.86602C26.2497 2.99802 26.4201 3.18673 26.5298 3.41073L26.5938 3.56673L27.0605 4.93473L28.4298 5.4014C28.6798 5.48632 28.8989 5.64355 29.0595 5.85315C29.22 6.06275 29.3147 6.31529 29.3315 6.57876C29.3484 6.84223 29.2866 7.10477 29.1541 7.33311C29.0216 7.56145 28.8243 7.74532 28.5872 7.8614L28.4298 7.9254L27.0618 8.39206L26.5952 9.7614C26.5101 10.0113 26.3527 10.2303 26.1431 10.3907C25.9334 10.5511 25.6808 10.6457 25.4174 10.6624C25.1539 10.6791 24.8914 10.6172 24.6631 10.4846C24.4349 10.3519 24.2511 10.1546 24.1352 9.9174L24.0712 9.7614L23.6045 8.3934L22.2352 7.92673C21.9852 7.8418 21.7661 7.68458 21.6055 7.47498C21.445 7.26538 21.3503 7.01284 21.3335 6.74937C21.3166 6.4859 21.3784 6.22336 21.5109 5.99501C21.6434 5.76667 21.8407 5.58281 22.0778 5.46673L22.2352 5.40273L23.6032 4.93606L24.0698 3.56673C24.1597 3.3033 24.3298 3.07461 24.5563 2.91273C24.7827 2.75085 25.0541 2.6639 25.3325 2.66406Z" fill="#8F00FF"/>
</svg>
