<svg width="44" height="44" viewBox="0 0 44 44" fill="none" xmlns="http://www.w3.org/2000/svg">
<path d="M29.334 29.3327L22.0007 21.9994M22.0007 21.9994L14.6673 29.3327M22.0007 21.9994V38.4994M37.3823 33.7144C39.1704 32.7396 40.583 31.197 41.3971 29.3302C42.2112 27.4634 42.3804 25.3787 41.878 23.405C41.3757 21.4313 40.2304 19.6812 38.6229 18.4307C37.0154 17.1803 35.0372 16.5007 33.0007 16.4994H30.6907C30.1357 14.353 29.1015 12.3603 27.6656 10.6712C26.2297 8.9821 24.4295 7.64046 22.4005 6.74718C20.3715 5.8539 18.1663 5.43223 15.9509 5.51385C13.7354 5.59548 11.5673 6.17828 9.60948 7.21845C7.65168 8.25862 5.95516 9.72909 4.64747 11.5193C3.33977 13.3095 2.45492 15.3729 2.05946 17.5543C1.66399 19.7357 1.76819 21.9784 2.36422 24.1137C2.96025 26.2491 4.0326 28.2215 5.50066 29.8827" stroke="#8F00FF" stroke-width="2.5" stroke-linecap="round" stroke-linejoin="round"/>
</svg>
