<svg width="132" height="132" viewBox="0 0 132 132" fill="none" xmlns="http://www.w3.org/2000/svg">
<path d="M66 132C102.451 132 132 102.451 132 66C132 29.5492 102.451 0 66 0C29.5492 0 0 29.5492 0 66C0 102.451 29.5492 132 66 132Z" fill="#7343DD"/>
<path d="M131.999 66.0007C131.999 65.6578 131.991 65.317 131.986 64.9754L85.6071 18.5965C85.6071 18.5965 51.5617 6.1882 47.6945 36.8679C43.8273 67.5476 34.6816 110.08 34.6816 110.08L55.9071 131.233C59.2467 131.745 62.6205 132.002 65.9992 132.001C102.45 132.001 131.999 102.452 131.999 66.0007Z" fill="#552CB7"/>
<path d="M92.3449 54.9172H81.8754V36.1685C81.8754 27.4153 74.7541 20.294 66.0006 20.294C57.2471 20.294 50.1258 27.4153 50.1258 36.1685V54.9172H39.6562V36.1685C39.6562 21.6423 51.4744 9.82422 66.0006 9.82422C80.5268 9.82422 92.3449 21.6421 92.3449 36.1685V54.9172Z" fill="#F4F2EF"/>
<path d="M92.3433 36.1695V54.9202H81.8735V36.1695C81.8735 27.4167 74.7527 20.2959 66 20.2959V9.82617C80.5252 9.82617 92.3433 21.6443 92.3433 36.1695Z" fill="#E5E1DC"/>
<path d="M85.1835 114.984H46.8148C37.1723 114.984 29.3555 107.167 29.3555 97.5247V53.8066H102.643V97.5247C102.643 107.167 94.8259 114.984 85.1835 114.984Z" fill="#FFC136"/>
<path d="M102.643 53.8086V97.5259C102.643 107.168 94.826 114.985 85.1838 114.985H66V53.8086H102.643Z" fill="#F4A300"/>
<path d="M75.6538 77.3826C75.6538 72.0507 71.3316 67.7285 65.9998 67.7285C60.6679 67.7285 56.3457 72.0507 56.3457 77.3826C56.3457 80.9894 58.3249 84.1318 61.255 85.7893V101.756H70.7443V85.7893C73.6746 84.1318 75.6538 80.9891 75.6538 77.3826Z" fill="#655665"/>
<path d="M75.6551 77.383C75.6551 80.9898 73.6751 84.1325 70.7437 85.7902V101.757H66V67.7305C71.3316 67.7305 75.6551 72.0514 75.6551 77.383Z" fill="#493E49"/>
</svg>
